<svg width="178" height="38" viewBox="0 0 178 38" fill="none" xmlns="http://www.w3.org/2000/svg">
<g filter="url(#filter0_dd_1_99)">
<rect x="3.1" y="2.1" width="31.8" height="31.8" rx="7.9" fill="white"/>
<rect x="3.1" y="2.1" width="31.8" height="31.8" rx="7.9" fill="url(#paint0_linear_1_99)"/>
<rect x="3.1" y="2.1" width="31.8" height="31.8" rx="7.9" stroke="#196DEB" stroke-width="0.2"/>
<path d="M18.3546 13.1827C22.7105 11.4503 27.4742 12.8184 29.6373 14.9132C30.106 15.3671 30.5041 15.8275 30.845 16.2851C31.0394 15.2107 31.0552 14.1405 30.8681 13.1055C30.1847 9.32646 26.6195 7.18558 23.4233 8.29146C20.2415 9.39237 19.0005 11.5321 19.0005 11.5321C19.0005 11.5321 17.7595 9.39237 14.5777 8.29146C11.3812 7.18558 7.81603 9.32669 7.1328 13.1055C6.62842 15.8944 7.58356 18.9391 9.61033 21.6298C10.0372 21.7732 10.4847 21.8809 10.9586 21.943C13.7978 22.3163 14.8184 21.557 16.0178 21.0486C16.8142 20.7112 17.4134 21.0942 17.3843 21.3626C17.3392 21.7786 15.7693 22.4895 16.106 22.6388C17.4351 23.2284 19.0718 23.2334 20.3053 22.18C21.838 20.8712 22.4114 21.7658 22.4114 21.7658C22.4114 21.7658 21.6502 23.7076 19.3581 24.6717C17.4457 25.4761 15.4419 25.6743 13.6107 25.4683C15.19 26.5846 17.0035 27.5204 19.0005 28.1882C24.7099 26.2784 28.9276 22.1871 30.4145 17.9096C29.4072 16.9157 28.1716 16.2995 26.6988 16.0763C23.8674 15.647 22.8322 16.3862 21.6228 16.8708C20.8198 17.1926 20.2285 16.7978 20.263 16.5299C20.3161 16.1148 21.8999 15.4351 21.5661 15.279C20.249 14.6633 18.6125 14.626 17.3585 15.6548C15.8003 16.9332 15.2446 16.0274 15.2446 16.0274C15.2446 16.0274 16.0438 14.1015 18.3546 13.1827ZM17.2709 18.5051H18.3709V17.4052H19.6296V18.5051H20.7296V19.7639H19.6296V20.8638H18.3709V19.7639H17.2709V18.5051Z" fill="url(#paint1_linear_1_99)"/>
<path d="M17.2709 18.5052H18.3709V17.4052H19.6296V18.5052H20.7295V19.7639H19.6378C21.2597 20.5834 24.2383 21.8027 27.8177 22.3451C28.9956 20.9517 29.8813 19.4428 30.4143 17.9096C29.4069 16.9157 28.1713 16.2996 26.6986 16.0763C23.8672 15.647 22.8319 16.3863 21.6226 16.8708C20.8196 17.1926 20.2282 16.7978 20.2627 16.5299C20.3159 16.1148 21.8997 15.4351 21.5659 15.279C20.2488 14.6633 18.6123 14.626 17.3583 15.6548C15.8 16.9332 15.2443 16.0274 15.2443 16.0274C15.2443 16.0274 16.0438 14.1013 18.3543 13.1823C22.7102 11.4499 27.4739 12.818 29.637 14.9128C30.1057 15.3666 30.5038 15.8271 30.8447 16.2847C31.0392 15.2102 31.055 14.14 30.8679 13.105C30.1844 9.326 26.6192 7.18512 23.423 8.291C20.2412 9.39191 19.0002 11.5316 19.0002 11.5316C19.0002 11.5316 17.7592 9.39191 14.5774 8.291C12.7519 7.65927 10.8067 8.0883 9.34619 9.27521C10.0323 10.7442 10.836 12.1168 13.1254 14.8773C14.9868 17.1222 17.2709 18.5052 17.2709 18.5052Z" fill="url(#paint2_linear_1_99)"/>
<path opacity="0.31" d="M27.2769 9.64942C24.2711 8.13932 21.169 10.489 20.185 11.7298C21.882 11.3724 23.3668 11.189 25.2457 11.5838C28.0251 12.1678 29.0653 13.1714 30.3063 14.6541C30.0871 11.9068 28.3518 10.1895 27.2769 9.64942Z" fill="url(#paint3_linear_1_99)"/>
</g>
<path d="M50.064 28L45.264 10.12H48.768L52.536 25.36H51.624L55.56 10.12H58.944L62.856 25.36H61.944L65.712 10.12H69.216L64.416 28H60.672L56.712 13.168H57.768L53.808 28H50.064ZM70.9328 28V14.944H74.0768V28H70.9328ZM70.9328 13.48V10.12H74.0768V13.48H70.9328ZM81.9476 28.288C80.5556 28.288 79.3396 27.96 78.2996 27.304C77.2756 26.632 76.5716 25.728 76.1876 24.592L78.5396 23.464C78.8756 24.2 79.3396 24.776 79.9316 25.192C80.5396 25.608 81.2116 25.816 81.9476 25.816C82.5236 25.816 82.9796 25.688 83.3156 25.432C83.6516 25.176 83.8196 24.84 83.8196 24.424C83.8196 24.168 83.7476 23.96 83.6036 23.8C83.4756 23.624 83.2916 23.48 83.0516 23.368C82.8276 23.24 82.5796 23.136 82.3076 23.056L80.1716 22.456C79.0676 22.136 78.2276 21.648 77.6516 20.992C77.0916 20.336 76.8116 19.56 76.8116 18.664C76.8116 17.864 77.0116 17.168 77.4116 16.576C77.8276 15.968 78.3956 15.496 79.1156 15.16C79.8516 14.824 80.6916 14.656 81.6356 14.656C82.8676 14.656 83.9556 14.952 84.8996 15.544C85.8436 16.136 86.5156 16.968 86.9156 18.04L84.5156 19.168C84.2916 18.576 83.9156 18.104 83.3876 17.752C82.8596 17.4 82.2676 17.224 81.6116 17.224C81.0836 17.224 80.6676 17.344 80.3636 17.584C80.0596 17.824 79.9076 18.136 79.9076 18.52C79.9076 18.76 79.9716 18.968 80.0996 19.144C80.2276 19.32 80.4036 19.464 80.6276 19.576C80.8676 19.688 81.1396 19.792 81.4436 19.888L83.5316 20.512C84.6036 20.832 85.4276 21.312 86.0036 21.952C86.5956 22.592 86.8916 23.376 86.8916 24.304C86.8916 25.088 86.6836 25.784 86.2676 26.392C85.8516 26.984 85.2756 27.448 84.5396 27.784C83.8036 28.12 82.9396 28.288 81.9476 28.288ZM95.4998 28.288C94.1558 28.288 92.9798 27.984 91.9718 27.376C90.9638 26.768 90.1798 25.944 89.6198 24.904C89.0598 23.864 88.7798 22.712 88.7798 21.448C88.7798 20.136 89.0598 18.976 89.6198 17.968C90.1958 16.944 90.9718 16.136 91.9478 15.544C92.9398 14.952 94.0438 14.656 95.2598 14.656C96.2838 14.656 97.1798 14.824 97.9478 15.16C98.7318 15.496 99.3958 15.96 99.9398 16.552C100.484 17.144 100.9 17.824 101.188 18.592C101.476 19.344 101.62 20.16 101.62 21.04C101.62 21.264 101.604 21.496 101.572 21.736C101.556 21.976 101.516 22.184 101.452 22.36H91.3717V19.96H99.6758L98.1878 21.088C98.3318 20.352 98.2918 19.696 98.0678 19.12C97.8598 18.544 97.5078 18.088 97.0118 17.752C96.5318 17.416 95.9478 17.248 95.2598 17.248C94.6038 17.248 94.0198 17.416 93.5078 17.752C92.9958 18.072 92.6038 18.552 92.3318 19.192C92.0758 19.816 91.9798 20.576 92.0438 21.472C91.9798 22.272 92.0838 22.984 92.3558 23.608C92.6438 24.216 93.0598 24.688 93.6038 25.024C94.1638 25.36 94.8038 25.528 95.5238 25.528C96.2438 25.528 96.8518 25.376 97.3478 25.072C97.8598 24.768 98.2598 24.36 98.5478 23.848L101.092 25.096C100.836 25.72 100.436 26.272 99.8918 26.752C99.3478 27.232 98.6998 27.608 97.9478 27.88C97.2118 28.152 96.3958 28.288 95.4998 28.288ZM104.267 28V10.12H107.531V17.92H115.139V10.12H118.427V28H115.139V20.8H107.531V28H104.267ZM127.797 28.288C126.453 28.288 125.277 27.984 124.269 27.376C123.261 26.768 122.477 25.944 121.917 24.904C121.357 23.864 121.077 22.712 121.077 21.448C121.077 20.136 121.357 18.976 121.917 17.968C122.493 16.944 123.269 16.136 124.245 15.544C125.237 14.952 126.341 14.656 127.557 14.656C128.581 14.656 129.477 14.824 130.245 15.16C131.029 15.496 131.693 15.96 132.237 16.552C132.781 17.144 133.197 17.824 133.485 18.592C133.773 19.344 133.917 20.16 133.917 21.04C133.917 21.264 133.901 21.496 133.869 21.736C133.853 21.976 133.813 22.184 133.749 22.36H123.669V19.96H131.973L130.485 21.088C130.629 20.352 130.589 19.696 130.365 19.12C130.157 18.544 129.805 18.088 129.309 17.752C128.829 17.416 128.245 17.248 127.557 17.248C126.901 17.248 126.317 17.416 125.805 17.752C125.293 18.072 124.901 18.552 124.629 19.192C124.373 19.816 124.277 20.576 124.341 21.472C124.277 22.272 124.381 22.984 124.653 23.608C124.941 24.216 125.357 24.688 125.901 25.024C126.461 25.36 127.101 25.528 127.821 25.528C128.541 25.528 129.149 25.376 129.645 25.072C130.157 24.768 130.557 24.36 130.845 23.848L133.389 25.096C133.133 25.72 132.733 26.272 132.189 26.752C131.645 27.232 130.997 27.608 130.245 27.88C129.509 28.152 128.693 28.288 127.797 28.288ZM140.213 28.288C139.301 28.288 138.509 28.136 137.837 27.832C137.165 27.528 136.645 27.096 136.277 26.536C135.909 25.96 135.725 25.296 135.725 24.544C135.725 23.824 135.885 23.184 136.205 22.624C136.525 22.048 137.021 21.568 137.693 21.184C138.365 20.8 139.213 20.528 140.237 20.368L144.509 19.672V22.072L140.837 22.696C140.213 22.808 139.749 23.008 139.445 23.296C139.141 23.584 138.989 23.96 138.989 24.424C138.989 24.872 139.157 25.232 139.493 25.504C139.845 25.76 140.277 25.888 140.789 25.888C141.445 25.888 142.021 25.752 142.517 25.48C143.029 25.192 143.421 24.8 143.693 24.304C143.981 23.808 144.125 23.264 144.125 22.672V19.312C144.125 18.752 143.901 18.288 143.453 17.92C143.021 17.536 142.445 17.344 141.725 17.344C141.053 17.344 140.453 17.528 139.925 17.896C139.413 18.248 139.037 18.72 138.797 19.312L136.229 18.064C136.485 17.376 136.885 16.784 137.429 16.288C137.989 15.776 138.645 15.376 139.397 15.088C140.149 14.8 140.965 14.656 141.845 14.656C142.917 14.656 143.861 14.856 144.677 15.256C145.493 15.64 146.125 16.184 146.573 16.888C147.037 17.576 147.269 18.384 147.269 19.312V28H144.293V25.768L144.965 25.72C144.629 26.28 144.229 26.752 143.765 27.136C143.301 27.504 142.773 27.792 142.181 28C141.589 28.192 140.933 28.288 140.213 28.288ZM150.175 28V9.832H153.319V28H150.175ZM162.174 28.144C160.702 28.144 159.558 27.744 158.742 26.944C157.942 26.128 157.542 24.984 157.542 23.512V17.752H155.286V14.944H155.526C156.166 14.944 156.662 14.776 157.014 14.44C157.366 14.104 157.542 13.616 157.542 12.976V11.968H160.686V14.944H163.686V17.752H160.686V23.344C160.686 23.776 160.758 24.144 160.902 24.448C161.062 24.752 161.302 24.984 161.622 25.144C161.958 25.304 162.382 25.384 162.894 25.384C163.006 25.384 163.134 25.376 163.278 25.36C163.438 25.344 163.59 25.328 163.734 25.312V28C163.51 28.032 163.254 28.064 162.966 28.096C162.678 28.128 162.414 28.144 162.174 28.144ZM166.136 28V9.832H169.28V17.512L168.848 17.056C169.152 16.272 169.648 15.68 170.336 15.28C171.04 14.864 171.856 14.656 172.784 14.656C173.744 14.656 174.592 14.864 175.328 15.28C176.08 15.696 176.664 16.28 177.08 17.032C177.496 17.768 177.704 18.624 177.704 19.6V28H174.56V20.344C174.56 19.768 174.448 19.272 174.224 18.856C174 18.44 173.688 18.12 173.288 17.896C172.904 17.656 172.448 17.536 171.92 17.536C171.408 17.536 170.952 17.656 170.552 17.896C170.152 18.12 169.84 18.44 169.616 18.856C169.392 19.272 169.28 19.768 169.28 20.344V28H166.136Z" fill="#06FFC3"/>
<defs>
<filter id="filter0_dd_1_99" x="0" y="0" width="38" height="38" filterUnits="userSpaceOnUse" color-interpolation-filters="sRGB">
<feFlood flood-opacity="0" result="BackgroundImageFix"/>
<feColorMatrix in="SourceAlpha" type="matrix" values="0 0 0 0 0 0 0 0 0 0 0 0 0 0 0 0 0 0 127 0" result="hardAlpha"/>
<feOffset dy="1"/>
<feGaussianBlur stdDeviation="1"/>
<feColorMatrix type="matrix" values="0 0 0 0 0.0627451 0 0 0 0 0.0941176 0 0 0 0 0.156863 0 0 0 0.06 0"/>
<feBlend mode="normal" in2="BackgroundImageFix" result="effect1_dropShadow_1_99"/>
<feColorMatrix in="SourceAlpha" type="matrix" values="0 0 0 0 0 0 0 0 0 0 0 0 0 0 0 0 0 0 127 0" result="hardAlpha"/>
<feOffset dy="1"/>
<feGaussianBlur stdDeviation="1.5"/>
<feColorMatrix type="matrix" values="0 0 0 0 0.0627451 0 0 0 0 0.0941176 0 0 0 0 0.156863 0 0 0 0.1 0"/>
<feBlend mode="normal" in2="effect1_dropShadow_1_99" result="effect2_dropShadow_1_99"/>
<feBlend mode="normal" in="SourceGraphic" in2="effect2_dropShadow_1_99" result="shape"/>
</filter>
<linearGradient id="paint0_linear_1_99" x1="19" y1="2" x2="19" y2="34" gradientUnits="userSpaceOnUse">
<stop stop-color="#3EFECC"/>
<stop offset="1" stop-color="#D0D5DD"/>
</linearGradient>
<linearGradient id="paint1_linear_1_99" x1="10.1989" y1="24.2137" x2="27.8347" y2="6.57788" gradientUnits="userSpaceOnUse">
<stop stop-color="#0076C1"/>
<stop offset="0.0737" stop-color="#0B82C6"/>
<stop offset="0.2766" stop-color="#269ED3"/>
<stop offset="0.4546" stop-color="#36AFDA"/>
<stop offset="0.587" stop-color="#3CB5DD"/>
</linearGradient>
<linearGradient id="paint2_linear_1_99" x1="10.1388" y1="24.2537" x2="27.8274" y2="6.56509" gradientUnits="userSpaceOnUse">
<stop stop-color="#00A482"/>
<stop offset="1" stop-color="#79DD83"/>
</linearGradient>
<linearGradient id="paint3_linear_1_99" x1="24.8608" y1="13.5072" x2="28.5287" y2="10.1131" gradientUnits="userSpaceOnUse">
<stop stop-color="#00A482"/>
<stop offset="1" stop-color="#79DD83"/>
</linearGradient>
</defs>
</svg>
